<svg width="439" height="260" viewBox="0 0 439 260" fill="none" xmlns="http://www.w3.org/2000/svg">
<g id="illus">
<path id="y-3" d="M323 235C323 221.193 334.193 210 348 210H439V260H348C334.193 260 323 248.807 323 235V235Z" fill="#E6BF07"/>
<path id="r-1" d="M104 165C104 151.193 115.193 140 129 140H439V190H129C115.193 190 104 178.807 104 165V165Z" fill="#C90F0D"/>
<path id="y-2" d="M178 95C178 81.1929 189.193 70 203 70H439V120H203C189.193 120 178 108.807 178 95V95Z" fill="#E6BF07"/>
<path id="y-1" d="M0 25C0 11.1929 11.1929 0 25 0H439V50H25C11.1929 50 0 38.8071 0 25V25Z" fill="#E6BF07"/>
</g>
</svg>
